<svg width="256" height="250" xmlns="http://www.w3.org/2000/svg" preserveAspectRatio="xMidYMid"><rect width="100%" height="100%" fill="none"/><g class="prefix__currentLayer"><path d="M128.59-.588C57.905-.588.587 56.718.587 127.412c0 56.555 36.676 104.535 87.535 121.46 6.397 1.186 8.746-2.776 8.746-6.157 0-3.052-.119-13.135-.174-23.831-35.61 7.743-43.124-15.103-43.124-15.103-5.823-14.795-14.212-18.729-14.212-18.729-11.614-7.944.875-7.78.875-7.78 12.854.902 19.622 13.19 19.622 13.19 11.416 19.568 29.944 13.91 37.248 10.64 1.149-8.273 4.466-13.92 8.127-17.116-28.431-3.237-58.318-14.212-58.318-63.259 0-13.974 5-25.393 13.188-34.357-1.329-3.224-5.71-16.243 1.24-33.874 0 0 10.75-3.44 35.21 13.12 10.21-2.835 21.16-4.258 32.038-4.306 10.878.048 21.837 1.47 32.066 4.307 24.431-16.561 35.165-13.12 35.165-13.12 6.967 17.63 2.584 30.65 1.255 33.873 8.207 8.964 13.174 20.383 13.174 34.357 0 49.163-29.945 59.989-58.447 63.157 4.59 3.973 8.682 11.762 8.682 23.704 0 17.127-.149 30.911-.149 35.127 0 3.406 2.304 7.398 8.792 6.14 50.832-16.944 87.461-64.907 87.461-121.442C256.588 56.718 199.28-.588 128.59-.588zm-80.061 182.34c-.282.636-1.283.827-2.194.39-.928-.418-1.45-1.285-1.149-1.923.276-.654 1.278-.837 2.205-.398.93.418 1.46 1.293 1.138 1.931zm6.296 5.618c-.61.566-1.804.303-2.613-.591-.838-.893-.995-2.086-.376-2.66.63-.566 1.787-.302 2.627.59.837.904 1 2.089.362 2.661zm4.32 7.188c-.785.545-2.067.034-2.86-1.104-.784-1.138-.784-2.504.017-3.05.795-.547 2.058-.055 2.862 1.074.782 1.158.782 2.523-.02 3.08zm7.305 8.325c-.702.774-2.196.566-3.29-.49-1.12-1.032-1.43-2.497-.727-3.27.71-.776 2.213-.558 3.315.49 1.11 1.03 1.45 2.505.702 3.27zm9.44 2.81c-.309 1.003-1.748 1.459-3.198 1.033-1.448-.44-2.395-1.613-2.102-2.627.3-1.009 1.746-1.483 3.207-1.028 1.445.437 2.395 1.603 2.094 2.622zm10.745 1.192c.036 1.056-1.193 1.931-2.715 1.95-1.53.034-2.768-.82-2.785-1.858 0-1.067 1.202-1.934 2.732-1.959 1.522-.03 2.768.818 2.768 1.867zm10.555-.404c.183 1.03-.875 2.088-2.386 2.37-1.486.27-2.862-.365-3.05-1.387-.185-1.055.892-2.113 2.376-2.386 1.513-.263 2.867.356 3.06 1.403z" fill="#000"/></g></svg>