<svg width="256" height="250" version="1.1" xmlns="http://www.w3.org/2000/svg" xmlns:xlink="http://www.w3.org/1999/xlink" preserveAspectRatio="xMidYMid"><rect id="backgroundrect" width="100%" height="100%" x="0" y="0" fill="none" stroke="none"/>
    
<g class="currentLayer" style=""><title>Layer 1</title><g id="svg_1" class="selected" fill="#ffffff" fill-opacity="1" opacity="1">
        <path d="M128.58929443359375,-0.5882352590560913 C57.90552520751953,-0.5882352590560913 0.5882352590560913,56.71845877170563 0.5882352590560913,127.41281759738922 C0.5882352590560913,183.96704733371735 37.264434814453125,231.94730246067047 88.1231689453125,248.87265646457672 C94.52025604248047,250.05754721164703 96.86882019042969,246.09592306613922 96.86882019042969,242.71509420871735 C96.86882019042969,239.66280233860016 96.7501220703125,229.5796571969986 96.69500732421875,218.88394796848297 C61.084991455078125,226.62700521945953 53.57085418701172,203.78146994113922 53.57085418701172,203.78146994113922 C47.748191833496094,188.98636496067047 39.358642578125,185.05229818820953 39.358642578125,185.05229818820953 C27.745115280151367,177.10787069797516 40.23405456542969,177.27109396457672 40.23405456542969,177.27109396457672 C53.08757400512695,178.17406332492828 59.85559844970703,190.46163046360016 59.85559844970703,190.46163046360016 C71.27200317382812,210.03018820285797 89.79981231689453,204.37285482883453 97.1041030883789,201.1022402048111 C98.2529525756836,192.82927572727203 101.5701904296875,187.18254721164703 105.23081970214844,183.98612082004547 C76.80003356933594,180.74942648410797 46.91305160522461,169.77390158176422 46.91305160522461,120.72746908664703 C46.91305160522461,106.75265371799469 51.913291931152344,95.33413565158844 60.101478576660156,86.370161652565 C58.7724609375,83.14617788791656 54.39115524291992,70.12732565402985 61.341468811035156,52.496126770973206 C61.341468811035156,52.496126770973206 72.0901870727539,49.05594503879547 96.55087280273438,65.61672079563141 C106.76119995117188,62.78064215183258 117.7112808227539,61.35835897922516 128.58929443359375,61.30960714817047 C139.46731567382812,61.35835897922516 150.42587280273438,62.78064215183258 160.6552734375,65.61672079563141 C185.08628845214844,49.05594503879547 195.82017517089844,52.496126770973206 195.82017517089844,52.496126770973206 C202.78744506835938,70.12732565402985 198.4040069580078,83.14617788791656 197.0749969482422,86.370161652565 C205.28225708007812,95.33413565158844 210.2485809326172,106.75265371799469 210.2485809326172,120.72746908664703 C210.2485809326172,169.89049398899078 180.3043670654297,180.71550619602203 151.80152893066406,183.88437521457672 C156.39266967773438,187.8565889596939 160.48358154296875,195.64627707004547 160.48358154296875,207.58835470676422 C160.48358154296875,224.71507894992828 160.335205078125,238.49912130832672 160.335205078125,242.71509420871735 C160.335205078125,246.1213594675064 162.63926696777344,250.11266195774078 169.1274871826172,248.85570394992828 C219.95867919921875,231.9112764596939 256.5882263183594,183.94797384738922 256.5882263183594,127.41281759738922 C256.5882263183594,56.71845877170563 199.27943420410156,-0.5882352590560913 128.58929443359375,-0.5882352590560913 zM48.52879333496094,181.7519747018814 C48.24687957763672,182.38786947727203 47.24640655517578,182.5786348581314 46.3349609375,182.1419893503189 C45.406558990478516,181.72441732883453 44.88512420654297,180.8574892282486 45.18611526489258,180.21947348117828 C45.461669921875,179.56450521945953 46.46426010131836,179.38220846652985 47.39054489135742,179.82097494602203 C48.321067810058594,180.2385469675064 48.85097885131836,181.1139589548111 48.52879333496094,181.7519747018814 zM54.82502365112305,187.3700166940689 C54.21456527709961,187.93596518039703 53.02120590209961,187.67313253879547 52.21150207519531,186.7786318063736 C51.37424087524414,185.88626730442047 51.21738815307617,184.69290792942047 51.836326599121094,184.11849081516266 C52.465858459472656,183.55254232883453 53.62318420410156,183.81749594211578 54.462562561035156,184.7098604440689 C55.29982376098633,185.61282980442047 55.463035583496094,186.79772055149078 54.82502365112305,187.3700166940689 zM59.144474029541016,194.55811178684235 C58.360206604003906,195.10286581516266 57.077823638916016,194.59203207492828 56.28507614135742,193.45377218723297 C55.50080871582031,192.31552755832672 55.50080871582031,190.95047628879547 56.302032470703125,190.40361654758453 C57.096900939941406,189.85674154758453 58.360206604003906,190.34850180149078 59.163551330566406,191.47826254367828 C59.945701599121094,192.63559591770172 59.945701599121094,194.00064718723297 59.144474029541016,194.55811178684235 zM66.44959259033203,202.88294088840485 C65.74799346923828,203.65660727024078 64.25364685058594,203.44888937473297 63.15990447998047,202.39330160617828 C62.040733337402344,201.3610292673111 61.72914505004883,199.89635336399078 62.43286895751953,199.12268698215485 C63.142948150634766,198.34689962863922 64.6457748413086,198.56522238254547 65.74799346923828,199.6123262643814 C66.85868835449219,200.6424776315689 67.19783020019531,202.1177431344986 66.44959259033203,202.88294088840485 zM75.8907470703125,205.6933046579361 C75.58128356933594,206.69589865207672 74.14204406738281,207.15161764621735 72.69220733642578,206.72557699680328 C71.24449157714844,206.2868105173111 70.29701232910156,205.11252462863922 70.58952331542969,204.09934103488922 C70.89051055908203,203.09038412570953 72.33610534667969,202.61559164524078 73.79653930664062,203.0713106393814 C75.24214172363281,203.5079561471939 76.19174194335938,204.67375814914703 75.8907470703125,205.6933046579361 zM86.63517761230469,206.8853975534439 C86.67121124267578,207.94097006320953 85.44181823730469,208.81638205051422 83.91991424560547,208.8354707956314 C82.38953399658203,208.86937582492828 81.15166473388672,208.0151582956314 81.13470458984375,206.97653830051422 C81.13470458984375,205.91036093235016 82.33654022216797,205.04341757297516 83.86692810058594,205.01798117160797 C85.38883209228516,204.98831808567047 86.63517761230469,205.83617269992828 86.63517761230469,206.8853975534439 zM97.19038391113281,206.4807802438736 C97.37267303466797,207.5109316110611 96.3149642944336,208.56864035129547 94.80366516113281,208.85054647922516 C93.31779479980469,209.12186300754547 91.94214630126953,208.48596823215485 91.75349426269531,207.4643007516861 C91.56908416748047,206.4087129831314 92.64586639404297,205.3510195016861 94.1296157836914,205.0775820016861 C95.6430435180664,204.81474936008453 96.99748992919922,205.43367636203766 97.19038391113281,206.4807802438736 z" fill="#ffffff" id="svg_2" fill-opacity="1" opacity="1"/>
    </g></g></svg>